<?xml version="1.0" encoding="UTF-8" standalone="no"?>
<!DOCTYPE svg PUBLIC "-//W3C//DTD SVG 1.1//EN"
 "http://www.w3.org/Graphics/SVG/1.1/DTD/svg11.dtd">
<!-- Generated by graphviz version 2.38.0 (20140413.2041)
 -->
<!-- Title: g Pages: 1 -->
<svg width="453pt" height="478pt"
 viewBox="0.00 0.00 453.47 477.96" xmlns="http://www.w3.org/2000/svg" xmlns:xlink="http://www.w3.org/1999/xlink">
<g id="graph0" class="graph" transform="scale(1 1) rotate(0) translate(4 473.96)">
<title>g</title>
<polygon fill="white" stroke="none" points="-4,4 -4,-473.96 449.472,-473.96 449.472,4 -4,4"/>
<!-- a -->
<g id="node1" class="node"><title>a</title>
<ellipse fill="none" stroke="black" cx="244.472" cy="-443.09" rx="94.0904" ry="26.7407"/>
<text text-anchor="middle" x="244.472" y="-446.89" font-family="Times,serif" font-size="14.00">simple symbol table</text>
<text text-anchor="middle" x="244.472" y="-431.89" font-family="Times,serif" font-size="14.00"> var → dom or &#39;bool&#39;</text>
</g>
<!-- b -->
<g id="node2" class="node"><title>b</title>
<ellipse fill="none" stroke="black" cx="244.472" cy="-338.35" rx="105.218" ry="26.7407"/>
<text text-anchor="middle" x="244.472" y="-342.15" font-family="Times,serif" font-size="14.00">detailed symbol table</text>
<text text-anchor="middle" x="244.472" y="-327.15" font-family="Times,serif" font-size="14.00"> (but w/o bitnames etc.)</text>
</g>
<!-- a&#45;&gt;b -->
<g id="edge1" class="edge"><title>a&#45;&gt;b</title>
<path fill="none" stroke="black" d="M244.472,-416.165C244.472,-403.875 244.472,-388.987 244.472,-375.602"/>
<polygon fill="black" stroke="black" points="247.972,-375.268 244.472,-365.268 240.972,-375.268 247.972,-375.268"/>
<text text-anchor="middle" x="313.472" y="-387.02" font-family="Times,serif" font-size="14.00">logicizer.graph_to_logic</text>
</g>
<!-- c -->
<g id="node3" class="node"><title>c</title>
<ellipse fill="none" stroke="black" cx="244.472" cy="-233.61" rx="127.973" ry="26.7407"/>
<text text-anchor="middle" x="244.472" y="-237.41" font-family="Times,serif" font-size="14.00">bitblasted symbol table</text>
<text text-anchor="middle" x="244.472" y="-222.41" font-family="Times,serif" font-size="14.00"> integer vars → bitnames etc.</text>
</g>
<!-- b&#45;&gt;c -->
<g id="edge2" class="edge"><title>b&#45;&gt;c</title>
<path fill="none" stroke="black" d="M244.472,-311.425C244.472,-299.135 244.472,-284.247 244.472,-270.862"/>
<polygon fill="black" stroke="black" points="247.972,-270.528 244.472,-260.528 240.972,-270.528 247.972,-270.528"/>
<text text-anchor="middle" x="308.972" y="-282.28" font-family="Times,serif" font-size="14.00">bitvector.bitblast_table</text>
</g>
<!-- d -->
<g id="node4" class="node"><title>d</title>
<ellipse fill="none" stroke="black" cx="136.472" cy="-128.87" rx="136.443" ry="26.7407"/>
<text text-anchor="middle" x="136.472" y="-132.67" font-family="Times,serif" font-size="14.00">integers → bits</text>
<text text-anchor="middle" x="136.472" y="-117.67" font-family="Times,serif" font-size="14.00"> primed integers → primed bits</text>
</g>
<!-- c&#45;&gt;d -->
<g id="edge3" class="edge"><title>c&#45;&gt;d</title>
<path fill="none" stroke="black" d="M164.563,-212.48C153.913,-206.509 144.324,-198.77 137.472,-188.74 132.931,-182.093 131.089,-173.965 130.715,-165.896"/>
<polygon fill="black" stroke="black" points="134.216,-165.896 130.935,-155.822 127.218,-165.744 134.216,-165.896"/>
<text text-anchor="middle" x="233.972" y="-177.54" font-family="Times,serif" font-size="14.00">symbolic._prime_and_order_table</text>
</g>
<!-- e -->
<g id="node5" class="node"><title>e</title>
<ellipse fill="none" stroke="black" cx="352.472" cy="-128.87" rx="27" ry="18"/>
<text text-anchor="middle" x="352.472" y="-125.17" font-family="Times,serif" font-size="14.00">bits</text>
</g>
<!-- c&#45;&gt;e -->
<g id="edge4" class="edge"><title>c&#45;&gt;e</title>
<path fill="none" stroke="black" d="M304.102,-209.627C313.825,-203.91 323.108,-196.995 330.472,-188.74 338.452,-179.793 343.635,-167.681 346.951,-156.768"/>
<polygon fill="black" stroke="black" points="350.41,-157.38 349.59,-146.817 343.644,-155.586 350.41,-157.38"/>
<text text-anchor="middle" x="389.472" y="-177.54" font-family="Times,serif" font-size="14.00">bitvector.list_bits</text>
</g>
<!-- f -->
<g id="node6" class="node"><title>f</title>
<ellipse fill="none" stroke="black" cx="352.472" cy="-18" rx="84.485" ry="18"/>
<text text-anchor="middle" x="352.472" y="-14.3" font-family="Times,serif" font-size="14.00">order of BDD levels</text>
</g>
<!-- e&#45;&gt;f -->
<g id="edge5" class="edge"><title>e&#45;&gt;f</title>
<path fill="none" stroke="black" d="M352.472,-110.859C352.472,-93.6234 352.472,-66.6857 352.472,-46.4297"/>
<polygon fill="black" stroke="black" points="355.972,-46.2507 352.472,-36.2508 348.972,-46.2508 355.972,-46.2507"/>
<text text-anchor="middle" x="398.972" y="-72.8" font-family="Times,serif" font-size="14.00">_pick_var_order</text>
<text text-anchor="middle" x="398.972" y="-57.8" font-family="Times,serif" font-size="14.00"> _partition_vars</text>
</g>
</g>
</svg>
