<?xml version="1.0" encoding="UTF-8" standalone="no"?>
<!DOCTYPE svg PUBLIC "-//W3C//DTD SVG 1.1//EN"
 "http://www.w3.org/Graphics/SVG/1.1/DTD/svg11.dtd">
<!-- Generated by graphviz version 2.38.0 (20140413.2041)
 -->
<!-- Title: g Pages: 1 -->
<svg width="460pt" height="604pt"
 viewBox="0.00 0.00 459.89 603.91" xmlns="http://www.w3.org/2000/svg" xmlns:xlink="http://www.w3.org/1999/xlink">
<g id="graph0" class="graph" transform="scale(1 1) rotate(0) translate(4 599.914)">
<title>g</title>
<polygon fill="white" stroke="none" points="-4,4 -4,-599.914 455.894,-599.914 455.894,4 -4,4"/>
<!-- fol -->
<g id="node1" class="node"><title>fol</title>
<ellipse fill="#76ee00" stroke="black" cx="298.894" cy="-569.044" rx="89.191" ry="26.7407"/>
<text text-anchor="middle" x="298.894" y="-572.844" font-family="Times,serif" font-size="14.00">QfFOL with “next”</text>
<text text-anchor="middle" x="298.894" y="-557.844" font-family="Times,serif" font-size="14.00"> (infix str)</text>
</g>
<!-- bv -->
<g id="node2" class="node"><title>bv</title>
<ellipse fill="orange" stroke="black" cx="298.894" cy="-464.304" rx="83.3772" ry="26.7407"/>
<text text-anchor="middle" x="298.894" y="-468.104" font-family="Times,serif" font-size="14.00">AST</text>
<text text-anchor="middle" x="298.894" y="-453.104" font-family="Times,serif" font-size="14.00"> (bitvector.Nodes)</text>
</g>
<!-- fol&#45;&gt;bv -->
<g id="edge1" class="edge"><title>fol&#45;&gt;bv</title>
<path fill="none" stroke="black" d="M298.894,-542.118C298.894,-529.829 298.894,-514.94 298.894,-501.555"/>
<polygon fill="black" stroke="black" points="302.394,-501.221 298.894,-491.221 295.394,-501.221 302.394,-501.221"/>
<text text-anchor="middle" x="375.394" y="-512.974" font-family="Times,serif" font-size="14.00">logic.lexyacc.Parser (PLY)</text>
</g>
<!-- slugsin -->
<g id="node3" class="node"><title>slugsin</title>
<ellipse fill="#76ee00" stroke="black" cx="298.894" cy="-348.957" rx="80.7205" ry="37.4533"/>
<text text-anchor="middle" x="298.894" y="-360.257" font-family="Times,serif" font-size="14.00">PL</text>
<text text-anchor="middle" x="298.894" y="-345.257" font-family="Times,serif" font-size="14.00"> (slugsin: prefix,</text>
<text text-anchor="middle" x="298.894" y="-330.257" font-family="Times,serif" font-size="14.00"> memory buffers)</text>
</g>
<!-- bv&#45;&gt;slugsin -->
<g id="edge2" class="edge"><title>bv&#45;&gt;slugsin</title>
<path fill="none" stroke="black" stroke-dasharray="5,2" d="M298.894,-437.3C298.894,-425.32 298.894,-410.725 298.894,-396.922"/>
<polygon fill="black" stroke="black" points="302.394,-396.578 298.894,-386.578 295.394,-396.578 302.394,-396.578"/>
<text text-anchor="middle" x="343.894" y="-408.234" font-family="Times,serif" font-size="14.00">flatten (bitblast)</text>
</g>
<!-- Nodes -->
<g id="node4" class="node"><title>Nodes</title>
<ellipse fill="orange" stroke="black" cx="229.894" cy="-218.61" rx="63.7795" ry="26.7407"/>
<text text-anchor="middle" x="229.894" y="-222.41" font-family="Times,serif" font-size="14.00">AST</text>
<text text-anchor="middle" x="229.894" y="-207.41" font-family="Times,serif" font-size="14.00"> (bdd.Nodes)</text>
</g>
<!-- slugsin&#45;&gt;Nodes -->
<g id="edge4" class="edge"><title>slugsin&#45;&gt;Nodes</title>
<path fill="none" stroke="black" d="M248.565,-319.645C239.814,-312.315 231.92,-303.585 226.894,-293.48 221.178,-281.988 220.385,-268.202 221.542,-255.669"/>
<polygon fill="black" stroke="black" points="225.044,-255.89 222.907,-245.513 218.106,-254.957 225.044,-255.89"/>
<text text-anchor="middle" x="284.394" y="-282.28" font-family="Times,serif" font-size="14.00">symbolic.bdd.Parser</text>
<text text-anchor="middle" x="284.394" y="-267.28" font-family="Times,serif" font-size="14.00"> (custom)</text>
</g>
<!-- slugs -->
<g id="node10" class="node"><title>slugs</title>
<ellipse fill="none" stroke="black" cx="367.894" cy="-218.61" rx="31.3957" ry="18"/>
<text text-anchor="middle" x="367.894" y="-214.91" font-family="Times,serif" font-size="14.00">Slugs</text>
</g>
<!-- slugsin&#45;&gt;slugs -->
<g id="edge3" class="edge"><title>slugsin&#45;&gt;slugs</title>
<path fill="none" stroke="black" d="M331.593,-314.428C336.896,-307.837 341.937,-300.713 345.894,-293.48 353.905,-278.839 359.332,-260.929 362.792,-246.412"/>
<polygon fill="black" stroke="black" points="366.234,-247.055 364.972,-236.535 359.398,-245.546 366.234,-247.055"/>
<text text-anchor="middle" x="401.894" y="-274.78" font-family="Times,serif" font-size="14.00">feed as input to</text>
</g>
<!-- BDDNodes -->
<g id="node5" class="node"><title>BDDNodes</title>
<ellipse fill="orange" stroke="black" cx="68.8939" cy="-122.74" rx="68.7879" ry="18"/>
<text text-anchor="middle" x="68.8939" y="-119.04" font-family="Times,serif" font-size="14.00">bdd.BDDNodes</text>
</g>
<!-- Nodes&#45;&gt;BDDNodes -->
<g id="edge5" class="edge"><title>Nodes&#45;&gt;BDDNodes</title>
<path fill="none" stroke="black" d="M193.36,-196.31C166.803,-180.825 131.036,-159.972 104.659,-144.593"/>
<polygon fill="black" stroke="black" points="106.153,-141.412 95.751,-139.399 102.627,-147.46 106.153,-141.412"/>
<text text-anchor="middle" x="178.394" y="-162.54" font-family="Times,serif" font-size="14.00">subclass</text>
</g>
<!-- DebugNodes -->
<g id="node6" class="node"><title>DebugNodes</title>
<ellipse fill="orange" stroke="black" cx="229.894" cy="-122.74" rx="74.187" ry="18"/>
<text text-anchor="middle" x="229.894" y="-119.04" font-family="Times,serif" font-size="14.00">bdd.DebugNodes</text>
</g>
<!-- Nodes&#45;&gt;DebugNodes -->
<g id="edge6" class="edge"><title>Nodes&#45;&gt;DebugNodes</title>
<path fill="none" stroke="black" d="M229.894,-191.711C229.894,-179.077 229.894,-163.879 229.894,-151.061"/>
<polygon fill="black" stroke="black" points="233.394,-150.962 229.894,-140.962 226.394,-150.962 233.394,-150.962"/>
<text text-anchor="middle" x="253.394" y="-162.54" font-family="Times,serif" font-size="14.00">subclass</text>
</g>
<!-- infix -->
<g id="node7" class="node"><title>infix</title>
<ellipse fill="#76ee00" stroke="black" cx="360.894" cy="-122.74" rx="38.9931" ry="18"/>
<text text-anchor="middle" x="360.894" y="-119.04" font-family="Times,serif" font-size="14.00">infix str</text>
</g>
<!-- Nodes&#45;&gt;infix -->
<g id="edge7" class="edge"><title>Nodes&#45;&gt;infix</title>
<path fill="none" stroke="black" stroke-dasharray="5,2" d="M261.272,-195.126C282.827,-179.68 311.222,-159.334 332.18,-144.315"/>
<polygon fill="black" stroke="black" points="334.292,-147.108 340.382,-138.438 330.215,-141.418 334.292,-147.108"/>
<text text-anchor="middle" x="329.394" y="-162.54" font-family="Times,serif" font-size="14.00">flatten</text>
</g>
<!-- bdd -->
<g id="node9" class="node"><title>bdd</title>
<ellipse fill="none" stroke="black" cx="68.8939" cy="-26.8701" rx="33.5952" ry="18"/>
<text text-anchor="middle" x="68.8939" y="-23.1701" font-family="Times,serif" font-size="14.00">BDDs</text>
</g>
<!-- BDDNodes&#45;&gt;bdd -->
<g id="edge8" class="edge"><title>BDDNodes&#45;&gt;bdd</title>
<path fill="none" stroke="black" stroke-dasharray="5,2" d="M68.8939,-104.523C68.8939,-90.7614 68.8939,-71.2097 68.8939,-55.2972"/>
<polygon fill="black" stroke="black" points="72.394,-54.9781 68.8939,-44.9781 65.394,-54.9782 72.394,-54.9781"/>
<text text-anchor="middle" x="86.3939" y="-75.5401" font-family="Times,serif" font-size="14.00">flatten</text>
</g>
<!-- debug -->
<g id="node8" class="node"><title>debug</title>
<ellipse fill="#76ee00" stroke="black" cx="287.894" cy="-26.8701" rx="124.402" ry="26.7407"/>
<text text-anchor="middle" x="287.894" y="-30.6701" font-family="Times,serif" font-size="14.00">readable infix</text>
<text text-anchor="middle" x="287.894" y="-15.6701" font-family="Times,serif" font-size="14.00"> (expanded memory buffers)</text>
</g>
<!-- DebugNodes&#45;&gt;debug -->
<g id="edge9" class="edge"><title>DebugNodes&#45;&gt;debug</title>
<path fill="none" stroke="black" stroke-dasharray="5,2" d="M240.532,-104.523C247.79,-92.776 257.655,-76.8101 266.503,-62.4901"/>
<polygon fill="black" stroke="black" points="269.569,-64.1858 271.848,-53.839 263.614,-60.5064 269.569,-64.1858"/>
<text text-anchor="middle" x="278.394" y="-75.5401" font-family="Times,serif" font-size="14.00">flatten</text>
</g>
<!-- infix&#45;&gt;debug -->
<g id="edge10" class="edge"><title>infix&#45;&gt;debug</title>
<path fill="none" stroke="black" stroke-dasharray="1,5" d="M348.178,-105.389C337.067,-91.1016 320.748,-70.1166 307.89,-53.5825"/>
<text text-anchor="middle" x="353.394" y="-75.5401" font-family="Times,serif" font-size="14.00">similar</text>
</g>
</g>
</svg>
