<?xml version="1.0" encoding="UTF-8" standalone="no"?>
<!DOCTYPE svg PUBLIC "-//W3C//DTD SVG 1.1//EN"
 "http://www.w3.org/Graphics/SVG/1.1/DTD/svg11.dtd">
<!-- Generated by graphviz version 2.38.0 (20140413.2041)
 -->
<!-- Title: g Pages: 1 -->
<svg width="294pt" height="484pt"
 viewBox="0.00 0.00 293.67 484.17" xmlns="http://www.w3.org/2000/svg" xmlns:xlink="http://www.w3.org/1999/xlink">
<g id="graph0" class="graph" transform="scale(1 1) rotate(0) translate(4 480.174)">
<title>g</title>
<polygon fill="white" stroke="none" points="-4,4 -4,-480.174 289.671,-480.174 289.671,4 -4,4"/>
<!-- a -->
<g id="node1" class="node"><title>a</title>
<ellipse fill="none" stroke="black" cx="142.836" cy="-449.304" rx="70.922" ry="26.7407"/>
<text text-anchor="middle" x="142.836" y="-453.104" font-family="Times,serif" font-size="14.00">full QfFOLTL</text>
<text text-anchor="middle" x="142.836" y="-438.104" font-family="Times,serif" font-size="14.00"> (past + future)</text>
</g>
<!-- b -->
<g id="node2" class="node"><title>b</title>
<ellipse fill="none" stroke="black" cx="142.836" cy="-353.434" rx="72.5877" ry="18"/>
<text text-anchor="middle" x="142.836" y="-349.734" font-family="Times,serif" font-size="14.00">future QfFOLTL</text>
</g>
<!-- a&#45;&gt;b -->
<g id="edge1" class="edge"><title>a&#45;&gt;b</title>
<path fill="none" stroke="black" d="M142.836,-422.405C142.836,-409.771 142.836,-394.572 142.836,-381.754"/>
<polygon fill="black" stroke="black" points="146.336,-381.655 142.836,-371.655 139.336,-381.655 146.336,-381.655"/>
<text text-anchor="middle" x="170.336" y="-393.234" font-family="Times,serif" font-size="14.00">logic.past</text>
</g>
<!-- c -->
<g id="node3" class="node"><title>c</title>
<ellipse fill="none" stroke="black" cx="142.836" cy="-246.957" rx="142.671" ry="37.4533"/>
<text text-anchor="middle" x="142.836" y="-258.257" font-family="Times,serif" font-size="14.00">QfFOL with “next”</text>
<text text-anchor="middle" x="142.836" y="-243.257" font-family="Times,serif" font-size="14.00"> (symbolic.Automaton attributes:</text>
<text text-anchor="middle" x="142.836" y="-228.257" font-family="Times,serif" font-size="14.00"> init, action, win)</text>
</g>
<!-- b&#45;&gt;c -->
<g id="edge2" class="edge"><title>b&#45;&gt;c</title>
<path fill="none" stroke="black" d="M142.836,-335.181C142.836,-324.175 142.836,-309.333 142.836,-295.016"/>
<polygon fill="black" stroke="black" points="146.336,-294.745 142.836,-284.746 139.336,-294.746 146.336,-294.745"/>
<text text-anchor="middle" x="201.836" y="-306.234" font-family="Times,serif" font-size="14.00">gr1.ltl_to_automaton</text>
</g>
<!-- d -->
<g id="node4" class="node"><title>d</title>
<ellipse fill="none" stroke="black" cx="142.836" cy="-131.61" rx="50.8235" ry="26.7407"/>
<text text-anchor="middle" x="142.836" y="-135.41" font-family="Times,serif" font-size="14.00">PL</text>
<text text-anchor="middle" x="142.836" y="-120.41" font-family="Times,serif" font-size="14.00"> (SlugsIn)</text>
</g>
<!-- c&#45;&gt;d -->
<g id="edge3" class="edge"><title>c&#45;&gt;d</title>
<path fill="none" stroke="black" d="M142.836,-209.469C142.836,-196.397 142.836,-181.676 142.836,-168.642"/>
<polygon fill="black" stroke="black" points="146.336,-168.614 142.836,-158.614 139.336,-168.614 146.336,-168.614"/>
<text text-anchor="middle" x="167.836" y="-180.28" font-family="Times,serif" font-size="14.00">bitvector</text>
</g>
<!-- e -->
<g id="node5" class="node"><title>e</title>
<ellipse fill="none" stroke="black" cx="142.836" cy="-26.8701" rx="71.3357" ry="26.7407"/>
<text text-anchor="middle" x="142.836" y="-30.6701" font-family="Times,serif" font-size="14.00">BDD</text>
<text text-anchor="middle" x="142.836" y="-15.6701" font-family="Times,serif" font-size="14.00"> (dd.bdd.BDD)</text>
</g>
<!-- d&#45;&gt;e -->
<g id="edge4" class="edge"><title>d&#45;&gt;e</title>
<path fill="none" stroke="black" d="M142.836,-104.685C142.836,-92.3951 142.836,-77.5066 142.836,-64.1214"/>
<polygon fill="black" stroke="black" points="146.336,-63.7874 142.836,-53.7874 139.336,-63.7875 146.336,-63.7874"/>
<text text-anchor="middle" x="180.836" y="-75.5401" font-family="Times,serif" font-size="14.00">symbolic.bdd</text>
</g>
</g>
</svg>
