<?xml version="1.0" encoding="UTF-8" standalone="no"?>
<!DOCTYPE svg PUBLIC "-//W3C//DTD SVG 1.1//EN"
 "http://www.w3.org/Graphics/SVG/1.1/DTD/svg11.dtd">
<!-- Generated by graphviz version 2.32.0 (20130904.0155)
 -->
<!-- Title: G Pages: 1 -->
<svg width="756pt" height="416pt"
 viewBox="0.00 0.00 756.00 416.00" xmlns="http://www.w3.org/2000/svg" xmlns:xlink="http://www.w3.org/1999/xlink">
<g id="graph0" class="graph" transform="scale(1 1) rotate(0) translate(4 412)">
<title>G</title>
<polygon fill="white" stroke="white" points="-4,5 -4,-412 753,-412 753,5 -4,5"/>
<text text-anchor="middle" x="374" y="-7.8" font-family="Times,serif" font-size="14.00">hello_simple.c</text>
<!-- main -->
<g id="node1" class="node"><title>main</title>
<path fill="#eecc80" stroke="#eecc80" d="M46,-232C46,-232 16,-232 16,-232 10,-232 4,-226 4,-220 4,-220 4,-206 4,-206 4,-200 10,-194 16,-194 16,-194 46,-194 46,-194 52,-194 58,-200 58,-206 58,-206 58,-220 58,-220 58,-226 52,-232 46,-232"/>
<path fill="none" stroke="#eecc80" d="M50,-236C50,-236 12,-236 12,-236 6,-236 0,-230 0,-224 0,-224 0,-202 0,-202 0,-196 6,-190 12,-190 12,-190 50,-190 50,-190 56,-190 62,-196 62,-202 62,-202 62,-224 62,-224 62,-230 56,-236 50,-236"/>
<text text-anchor="middle" x="31" y="-216.8" font-family="Vera Sans Mono" font-size="14.00">main</text>
<text text-anchor="middle" x="31" y="-201.8" font-family="Vera Sans Mono" font-size="14.00">50</text>
</g>
<!-- fly -->
<g id="node2" class="node"><title>fly</title>
<ellipse fill="#eecc80" stroke="#eecc80" cx="399" cy="-293" rx="27" ry="26.7574"/>
<ellipse fill="none" stroke="#eecc80" cx="399" cy="-293" rx="31" ry="30.7407"/>
<text text-anchor="middle" x="399" y="-296.8" font-family="Vera Sans Mono" font-size="14.00">fly</text>
<text text-anchor="middle" x="399" y="-281.8" font-family="Vera Sans Mono" font-size="14.00">28</text>
</g>
<!-- main&#45;&gt;fly -->
<g id="edge11" class="edge"><title>main&#45;&gt;fly</title>
<path fill="none" stroke="#000000" d="M37.3451,-236.369C45.2286,-264.75 62.986,-311.381 98,-332 182.241,-381.608 302.581,-338.458 361.989,-311.212"/>
<polygon fill="#000000" stroke="#000000" points="363.762,-314.246 371.327,-306.828 360.788,-307.909 363.762,-314.246"/>
</g>
<!-- back -->
<g id="node6" class="node"><title>back</title>
<ellipse fill="#eecc80" stroke="#eecc80" cx="198" cy="-293" rx="33.8885" ry="26.7574"/>
<ellipse fill="none" stroke="#eecc80" cx="198" cy="-293" rx="37.8823" ry="30.7407"/>
<text text-anchor="middle" x="198" y="-296.8" font-family="Vera Sans Mono" font-size="14.00">back</text>
<text text-anchor="middle" x="198" y="-281.8" font-family="Vera Sans Mono" font-size="14.00">45</text>
</g>
<!-- main&#45;&gt;back -->
<g id="edge15" class="edge"><title>main&#45;&gt;back</title>
<path fill="none" stroke="#000000" d="M62.0605,-231.973C73.1639,-238.657 85.9739,-245.994 98,-252 115.834,-260.906 136.084,-269.54 153.602,-276.569"/>
<polygon fill="#000000" stroke="#000000" points="152.435,-279.872 163.021,-280.301 155.013,-273.364 152.435,-279.872"/>
</g>
<!-- hello_los_angeles -->
<g id="node7" class="node"><title>hello_los_angeles</title>
<ellipse fill="#eecc80" stroke="#eecc80" cx="198" cy="-213" rx="96.3267" ry="26.7574"/>
<ellipse fill="none" stroke="#eecc80" cx="198" cy="-213" rx="100.333" ry="30.7407"/>
<text text-anchor="middle" x="198" y="-216.8" font-family="Vera Sans Mono" font-size="14.00">hello_los_angeles</text>
<text text-anchor="middle" x="198" y="-201.8" font-family="Vera Sans Mono" font-size="14.00">40</text>
</g>
<!-- main&#45;&gt;hello_los_angeles -->
<g id="edge12" class="edge"><title>main&#45;&gt;hello_los_angeles</title>
<path fill="none" stroke="#000000" d="M62.2635,-213C69.8474,-213 78.4317,-213 87.5056,-213"/>
<polygon fill="#000000" stroke="#000000" points="87.5198,-216.5 97.5197,-213 87.5197,-209.5 87.5198,-216.5"/>
</g>
<!-- hello_paris -->
<g id="node10" class="node"><title>hello_paris</title>
<ellipse fill="#eecc80" stroke="#eecc80" cx="198" cy="-133" rx="63.7712" ry="26.7574"/>
<ellipse fill="none" stroke="#eecc80" cx="198" cy="-133" rx="67.7795" ry="30.7407"/>
<text text-anchor="middle" x="198" y="-136.8" font-family="Vera Sans Mono" font-size="14.00">hello_paris</text>
<text text-anchor="middle" x="198" y="-121.8" font-family="Vera Sans Mono" font-size="14.00">35</text>
</g>
<!-- main&#45;&gt;hello_paris -->
<g id="edge13" class="edge"><title>main&#45;&gt;hello_paris</title>
<path fill="none" stroke="#000000" d="M62.3103,-193.228C73.3294,-186.418 86.0207,-179.001 98,-173 109.953,-167.012 123.028,-161.223 135.644,-155.997"/>
<polygon fill="#000000" stroke="#000000" points="137.234,-159.129 145.176,-152.116 134.594,-152.645 137.234,-159.129"/>
</g>
<!-- hello_athens -->
<g id="node11" class="node"><title>hello_athens</title>
<ellipse fill="#eecc80" stroke="#eecc80" cx="198" cy="-53" rx="73.5762" ry="26.7574"/>
<ellipse fill="none" stroke="#eecc80" cx="198" cy="-53" rx="77.5782" ry="30.7407"/>
<text text-anchor="middle" x="198" y="-56.8" font-family="Vera Sans Mono" font-size="14.00">hello_athens</text>
<text text-anchor="middle" x="198" y="-41.8" font-family="Vera Sans Mono" font-size="14.00">8</text>
</g>
<!-- main&#45;&gt;hello_athens -->
<g id="edge14" class="edge"><title>main&#45;&gt;hello_athens</title>
<path fill="none" stroke="#000000" d="M39.4451,-189.61C49.0387,-162.911 68.1272,-119.518 98,-93 106.067,-85.8393 115.581,-79.8673 125.468,-74.9135"/>
<polygon fill="#000000" stroke="#000000" points="127.038,-78.0434 134.622,-70.6455 124.08,-71.6991 127.038,-78.0434"/>
</g>
<!-- take_off -->
<g id="node3" class="node"><title>take_off</title>
<path fill="#ccee80" stroke="#ccee80" d="M614.206,-370.974C614.206,-370.974 614.206,-379.026 614.206,-379.026 614.206,-383.052 610.646,-388.958 607.086,-390.838 607.086,-390.838 588.987,-400.398 588.987,-400.398 585.427,-402.278 577.841,-404.158 573.815,-404.158 573.815,-404.158 544.185,-404.158 544.185,-404.158 540.159,-404.158 532.573,-402.278 529.013,-400.398 529.013,-400.398 510.914,-390.838 510.914,-390.838 507.354,-388.958 503.794,-383.052 503.794,-379.026 503.794,-379.026 503.794,-370.974 503.794,-370.974 503.794,-366.948 507.354,-361.042 510.914,-359.162 510.914,-359.162 529.013,-349.602 529.013,-349.602 532.573,-347.722 540.159,-345.842 544.185,-345.842 544.185,-345.842 573.815,-345.842 573.815,-345.842 577.841,-345.842 585.427,-347.722 588.987,-349.602 588.987,-349.602 607.086,-359.162 607.086,-359.162 610.646,-361.042 614.206,-366.948 614.206,-370.974"/>
<path fill="none" stroke="#ccee80" d="M618.213,-370.168C618.213,-370.168 618.213,-379.832 618.213,-379.832 618.213,-384.664 613.94,-391.752 609.668,-394.009 609.668,-394.009 591.405,-403.655 591.405,-403.655 587.132,-405.911 578.028,-408.168 573.196,-408.168 573.196,-408.168 544.804,-408.168 544.804,-408.168 539.972,-408.168 530.868,-405.911 526.595,-403.655 526.595,-403.655 508.332,-394.009 508.332,-394.009 504.06,-391.752 499.787,-384.664 499.787,-379.832 499.787,-379.832 499.787,-370.168 499.787,-370.168 499.787,-365.336 504.06,-358.248 508.332,-355.991 508.332,-355.991 526.595,-346.345 526.595,-346.345 530.868,-344.089 539.972,-341.832 544.804,-341.832 544.804,-341.832 573.196,-341.832 573.196,-341.832 578.028,-341.832 587.132,-344.089 591.405,-346.345 591.405,-346.345 609.668,-355.991 609.668,-355.991 613.94,-358.248 618.213,-365.336 618.213,-370.168"/>
<text text-anchor="middle" x="559" y="-378.8" font-family="Vera Sans Mono" font-size="14.00">take_off</text>
<text text-anchor="middle" x="559" y="-363.8" font-family="Vera Sans Mono" font-size="14.00">13</text>
</g>
<!-- fly&#45;&gt;take_off -->
<g id="edge2" class="edge"><title>fly&#45;&gt;take_off</title>
<path fill="none" stroke="#000000" d="M426.803,-306.91C448.303,-318.069 479.141,-334.073 505.517,-347.762"/>
<polygon fill="#000000" stroke="#000000" points="504.15,-350.996 514.638,-352.496 507.374,-344.783 504.15,-350.996"/>
</g>
<!-- cruise -->
<g id="node5" class="node"><title>cruise</title>
<path fill="#ccee80" stroke="#ccee80" d="M602.742,-286.974C602.742,-286.974 602.742,-295.026 602.742,-295.026 602.742,-299.052 599.392,-305.311 596.042,-307.544 596.042,-307.544 583.818,-315.692 583.818,-315.692 580.468,-317.925 573.092,-320.158 569.067,-320.158 569.067,-320.158 548.933,-320.158 548.933,-320.158 544.908,-320.158 537.532,-317.925 534.182,-315.692 534.182,-315.692 521.958,-307.544 521.958,-307.544 518.608,-305.311 515.258,-299.052 515.258,-295.026 515.258,-295.026 515.258,-286.974 515.258,-286.974 515.258,-282.948 518.608,-276.689 521.958,-274.456 521.958,-274.456 534.182,-266.308 534.182,-266.308 537.532,-264.075 544.908,-261.842 548.933,-261.842 548.933,-261.842 569.067,-261.842 569.067,-261.842 573.092,-261.842 580.468,-264.075 583.818,-266.308 583.818,-266.308 596.042,-274.456 596.042,-274.456 599.392,-276.689 602.742,-282.948 602.742,-286.974"/>
<path fill="none" stroke="#ccee80" d="M606.752,-286.259C606.752,-286.259 606.752,-295.741 606.752,-295.741 606.752,-300.483 602.807,-307.854 598.862,-310.483 598.862,-310.483 586.223,-318.909 586.223,-318.909 582.278,-321.538 573.591,-324.168 568.85,-324.168 568.85,-324.168 549.15,-324.168 549.15,-324.168 544.409,-324.168 535.722,-321.538 531.777,-318.909 531.777,-318.909 519.138,-310.483 519.138,-310.483 515.193,-307.854 511.248,-300.483 511.248,-295.741 511.248,-295.741 511.248,-286.259 511.248,-286.259 511.248,-281.517 515.193,-274.146 519.138,-271.517 519.138,-271.517 531.777,-263.091 531.777,-263.091 535.722,-260.462 544.409,-257.832 549.15,-257.832 549.15,-257.832 568.85,-257.832 568.85,-257.832 573.591,-257.832 582.278,-260.462 586.223,-263.091 586.223,-263.091 598.862,-271.517 598.862,-271.517 602.807,-274.146 606.752,-281.517 606.752,-286.259"/>
<text text-anchor="middle" x="559" y="-294.8" font-family="Vera Sans Mono" font-size="14.00">cruise</text>
<text text-anchor="middle" x="559" y="-279.8" font-family="Vera Sans Mono" font-size="14.00">18</text>
</g>
<!-- fly&#45;&gt;cruise -->
<g id="edge3" class="edge"><title>fly&#45;&gt;cruise</title>
<path fill="none" stroke="#000000" d="M430.09,-292.619C450.146,-292.365 477.136,-292.024 501.154,-291.72"/>
<polygon fill="#000000" stroke="#000000" points="501.281,-295.218 511.236,-291.592 501.193,-288.219 501.281,-295.218"/>
</g>
<!-- land -->
<g id="node8" class="node"><title>land</title>
<path fill="#ccee80" stroke="#ccee80" d="M594.394,-202.974C594.394,-202.974 594.394,-211.026 594.394,-211.026 594.394,-215.052 591.286,-221.637 588.179,-224.197 588.179,-224.197 579.875,-231.038 579.875,-231.038 576.768,-233.598 569.635,-236.158 565.609,-236.158 565.609,-236.158 552.391,-236.158 552.391,-236.158 548.365,-236.158 541.232,-233.598 538.125,-231.038 538.125,-231.038 529.821,-224.197 529.821,-224.197 526.714,-221.637 523.606,-215.052 523.606,-211.026 523.606,-211.026 523.606,-202.974 523.606,-202.974 523.606,-198.948 526.714,-192.363 529.821,-189.803 529.821,-189.803 538.125,-182.962 538.125,-182.962 541.232,-180.402 548.365,-177.842 552.391,-177.842 552.391,-177.842 565.609,-177.842 565.609,-177.842 569.635,-177.842 576.768,-180.402 579.875,-182.962 579.875,-182.962 588.179,-189.803 588.179,-189.803 591.286,-192.363 594.394,-198.948 594.394,-202.974"/>
<path fill="none" stroke="#ccee80" d="M598.415,-202.345C598.415,-202.345 598.415,-211.655 598.415,-211.655 598.415,-216.311 594.822,-223.927 591.228,-226.887 591.228,-226.887 582.293,-234.248 582.293,-234.248 578.7,-237.208 570.451,-240.168 565.796,-240.168 565.796,-240.168 552.204,-240.168 552.204,-240.168 547.549,-240.168 539.3,-237.208 535.707,-234.248 535.707,-234.248 526.772,-226.887 526.772,-226.887 523.178,-223.927 519.585,-216.311 519.585,-211.655 519.585,-211.655 519.585,-202.345 519.585,-202.345 519.585,-197.689 523.178,-190.073 526.772,-187.113 526.772,-187.113 535.707,-179.752 535.707,-179.752 539.3,-176.792 547.549,-173.832 552.204,-173.832 552.204,-173.832 565.796,-173.832 565.796,-173.832 570.451,-173.832 578.7,-176.792 582.293,-179.752 582.293,-179.752 591.228,-187.113 591.228,-187.113 594.822,-190.073 598.415,-197.689 598.415,-202.345"/>
<text text-anchor="middle" x="559" y="-210.8" font-family="Vera Sans Mono" font-size="14.00">land</text>
<text text-anchor="middle" x="559" y="-195.8" font-family="Vera Sans Mono" font-size="14.00">23</text>
</g>
<!-- fly&#45;&gt;land -->
<g id="edge1" class="edge"><title>fly&#45;&gt;land</title>
<path fill="none" stroke="#000000" d="M426.446,-278.606C450.782,-265.359 487.295,-245.485 515.684,-230.033"/>
<polygon fill="#000000" stroke="#000000" points="517.48,-233.04 524.59,-225.185 514.133,-226.892 517.48,-233.04"/>
</g>
<!-- printf -->
<g id="node9" class="node"><title>printf</title>
<path fill="#80ccee" stroke="#80ccee" d="M734.808,-255C734.808,-255 728.046,-261 728.046,-261 724.666,-264 716.765,-267 712.245,-267 712.245,-267 689.755,-267 689.755,-267 685.235,-267 677.334,-264 673.954,-261 673.954,-261 667.192,-255 667.192,-255 663.811,-252 663.811,-246 667.192,-243 667.192,-243 673.954,-237 673.954,-237 677.334,-234 685.235,-231 689.755,-231 689.755,-231 712.245,-231 712.245,-231 716.765,-231 724.666,-234 728.046,-237 728.046,-237 734.808,-243 734.808,-243 738.189,-246 738.189,-252 734.808,-255"/>
<path fill="none" stroke="#80ccee" d="M739.335,-256.333C739.335,-256.333 731.071,-263.667 731.071,-263.667 726.938,-267.333 717.282,-271 711.758,-271 711.758,-271 690.242,-271 690.242,-271 684.718,-271 675.062,-267.333 670.929,-263.667 670.929,-263.667 662.665,-256.333 662.665,-256.333 658.533,-252.667 658.533,-245.333 662.665,-241.667 662.665,-241.667 670.929,-234.333 670.929,-234.333 675.062,-230.667 684.718,-227 690.242,-227 690.242,-227 711.758,-227 711.758,-227 717.282,-227 726.938,-230.667 731.071,-234.333 731.071,-234.333 739.335,-241.667 739.335,-241.667 743.467,-245.333 743.467,-252.667 739.335,-256.333"/>
<text text-anchor="middle" x="701" y="-245.3" font-family="Vera Sans Mono" font-size="14.00">printf</text>
</g>
<!-- take_off&#45;&gt;printf -->
<g id="edge4" class="edge"><title>take_off&#45;&gt;printf</title>
<path fill="none" stroke="#000000" d="M597.543,-349.253C604.508,-344.077 611.6,-338.524 618,-333 637.489,-316.177 657.712,-295.503 673.198,-278.874"/>
<polygon fill="#000000" stroke="#000000" points="676.188,-280.794 680.396,-271.071 671.043,-276.048 676.188,-280.794"/>
</g>
<!-- say_hello -->
<g id="node4" class="node"><title>say_hello</title>
<path fill="#ccee80" stroke="#ccee80" d="M460.445,-132.974C460.445,-132.974 460.445,-141.026 460.445,-141.026 460.445,-145.052 456.808,-150.804 453.171,-152.529 453.171,-152.529 431.726,-162.706 431.726,-162.706 428.089,-164.432 420.426,-166.158 416.4,-166.158 416.4,-166.158 381.6,-166.158 381.6,-166.158 377.574,-166.158 369.911,-164.432 366.274,-162.706 366.274,-162.706 344.829,-152.529 344.829,-152.529 341.192,-150.804 337.555,-145.052 337.555,-141.026 337.555,-141.026 337.555,-132.974 337.555,-132.974 337.555,-128.948 341.192,-123.196 344.829,-121.471 344.829,-121.471 366.274,-111.294 366.274,-111.294 369.911,-109.568 377.574,-107.842 381.6,-107.842 381.6,-107.842 416.4,-107.842 416.4,-107.842 420.426,-107.842 428.089,-109.568 431.726,-111.294 431.726,-111.294 453.171,-121.471 453.171,-121.471 456.808,-123.196 460.445,-128.948 460.445,-132.974"/>
<path fill="none" stroke="#ccee80" d="M464.46,-132.129C464.46,-132.129 464.46,-141.871 464.46,-141.871 464.46,-146.742 460.059,-153.701 455.659,-155.789 455.659,-155.789 434.157,-165.992 434.157,-165.992 429.757,-168.08 420.486,-170.168 415.615,-170.168 415.615,-170.168 382.385,-170.168 382.385,-170.168 377.514,-170.168 368.243,-168.08 363.843,-165.992 363.843,-165.992 342.341,-155.789 342.341,-155.789 337.941,-153.701 333.54,-146.742 333.54,-141.871 333.54,-141.871 333.54,-132.129 333.54,-132.129 333.54,-127.258 337.941,-120.299 342.341,-118.211 342.341,-118.211 363.843,-108.008 363.843,-108.008 368.243,-105.92 377.514,-103.832 382.385,-103.832 382.385,-103.832 415.615,-103.832 415.615,-103.832 420.486,-103.832 429.757,-105.92 434.157,-108.008 434.157,-108.008 455.659,-118.211 455.659,-118.211 460.059,-120.299 464.46,-127.258 464.46,-132.129"/>
<text text-anchor="middle" x="399" y="-140.8" font-family="Vera Sans Mono" font-size="14.00">say_hello</text>
<text text-anchor="middle" x="399" y="-125.8" font-family="Vera Sans Mono" font-size="14.00">3</text>
</g>
<!-- say_hello&#45;&gt;printf -->
<g id="edge5" class="edge"><title>say_hello&#45;&gt;printf</title>
<path fill="none" stroke="#000000" d="M464.269,-134.352C509.477,-135.021 570.193,-141.16 618,-165 642.625,-177.28 664.084,-199.973 678.868,-218.679"/>
<polygon fill="#000000" stroke="#000000" points="676.127,-220.856 684.981,-226.675 681.688,-216.605 676.127,-220.856"/>
</g>
<!-- cruise&#45;&gt;printf -->
<g id="edge6" class="edge"><title>cruise&#45;&gt;printf</title>
<path fill="none" stroke="#000000" d="M607.007,-276.898C622.777,-272.167 640.298,-266.911 655.841,-262.248"/>
<polygon fill="#000000" stroke="#000000" points="657.159,-265.507 665.731,-259.281 655.147,-258.802 657.159,-265.507"/>
</g>
<!-- back&#45;&gt;fly -->
<g id="edge7" class="edge"><title>back&#45;&gt;fly</title>
<path fill="none" stroke="#000000" d="M235.964,-293C270.542,-293 322.066,-293 357.688,-293"/>
<polygon fill="#000000" stroke="#000000" points="357.741,-296.5 367.741,-293 357.741,-289.5 357.741,-296.5"/>
</g>
<!-- hello_los_angeles&#45;&gt;say_hello -->
<g id="edge8" class="edge"><title>hello_los_angeles&#45;&gt;say_hello</title>
<path fill="none" stroke="#000000" d="M261.146,-189.266C284.801,-180.232 311.75,-169.94 335.443,-160.891"/>
<polygon fill="#000000" stroke="#000000" points="336.94,-164.066 345.033,-157.229 334.442,-157.527 336.94,-164.066"/>
</g>
<!-- land&#45;&gt;printf -->
<g id="edge9" class="edge"><title>land&#45;&gt;printf</title>
<path fill="none" stroke="#000000" d="M598.256,-218.477C616.098,-223.83 637.432,-230.23 655.946,-235.784"/>
<polygon fill="#000000" stroke="#000000" points="655.034,-239.164 665.618,-238.685 657.045,-232.459 655.034,-239.164"/>
</g>
<!-- hello_paris&#45;&gt;say_hello -->
<g id="edge10" class="edge"><title>hello_paris&#45;&gt;say_hello</title>
<path fill="none" stroke="#000000" d="M265.818,-134.343C284.386,-134.716 304.662,-135.124 323.634,-135.505"/>
<polygon fill="#000000" stroke="#000000" points="323.651,-139.006 333.719,-135.708 323.791,-132.008 323.651,-139.006"/>
</g>
<!-- hello_athens&#45;&gt;say_hello -->
<g id="edge16" class="edge"><title>hello_athens&#45;&gt;say_hello</title>
<path fill="none" stroke="#000000" d="M253.073,-74.5004C267.691,-80.4075 283.482,-86.875 298,-93 311.489,-98.6911 325.935,-104.95 339.534,-110.918"/>
<polygon fill="#000000" stroke="#000000" points="338.229,-114.167 348.792,-114.992 341.049,-107.76 338.229,-114.167"/>
</g>
</g>
</svg>
